<svg xmlns="http://www.w3.org/2000/svg" xmlns:xlink="http://www.w3.org/1999/xlink" id="Layer_1" x="0" y="0" version="1.1" viewBox="0 0 69.3 55.1" xml:space="preserve" style="enable-background:new 0 0 69.3 55.1"><style type="text/css">.st0{fill:url(#SVGID_1_)}.st1{fill:#77c600}</style><linearGradient id="SVGID_1_" x1="-574.951" x2="-575.185" y1="405.92" y2="405.388" gradientTransform="matrix(69.034 0 0 -52.061 39731.8555 21147.1992)" gradientUnits="userSpaceOnUse"><stop offset="0" style="stop-color:#fff"/><stop offset=".254" style="stop-color:#e0e0e0"/><stop offset=".544" style="stop-color:#c5c5c5"/><stop offset=".8" style="stop-color:#b4b4b4"/><stop offset=".993" style="stop-color:#afafaf"/></linearGradient><path d="M47.8,25.1c-5.2-9.4-8.3-18.5-9.3-23.9c-4,2.4-6.7,3.6-10.7,6c1.6,6.8,4.1,13.4,7.5,19.5H21.1	c-0.4-0.5-0.8-1-1.1-1.6C15.5,17.6,12.5,9.5,10.8,1C6.9,3.4,4,4.8,0,7.2c2.2,9.4,6.2,18.3,11.6,26.3c5.3,7.7,12,14.4,19.8,19.5	c3.3-3.1,5.8-5.5,9.1-8.6c-3.5-2.4-6.8-5.1-9.9-8h10.9c5.1,6.4,11.3,11.9,18.1,16.4c3.3-3.1,5.4-5.3,8.7-8.5	c-3.7-2.2-7.1-4.9-10.2-8l10.9,0v-9.8H48.9C48.5,26.2,48.1,25.6,47.8,25.1z" class="st0"/><rect width="12.5" height="12.5" x="56.7" class="st1"/></svg>